<svg width="375" height="250" fill="none" xmlns="http://www.w3.org/2000/svg"><g clip-path="url(#a)"><path d="M375 89.584 371.027 0l-79.076 42.66 25.413 14.336-31.624 47.713-173.147-.442L0 249.205l.19.127H43.92l85.603-110.204 174.818.411 43.354-65.396L375 89.583z" fill="#009DD6"/><path d="M350.324 203.312c-4.164-35.793-15.12-60.778-34.354-89.531-11.502-17.202-22.854-24.44-31.976-27.167h-29.348c-9.121 2.727-20.474 9.965-31.975 27.167-19.235 28.753-30.191 53.738-34.355 89.531-3.321 28.554 10.56 45.459 40.453 46.302 19.334.545 33.413.347 40.551.149 7.089.198 21.218.347 40.552-.149 29.943-.843 43.774-17.748 40.452-46.302zM287.861 82.896l24.787-39.858s-9.965 4.71-20.226 5.008c-10.014.247-15.021-5.305-22.755-5.553H269.072c-7.733.248-12.74 5.8-22.754 5.552-10.262-.297-20.227-5.007-20.227-5.007l24.788 39.858h36.982z" fill="#333"/><path d="m249.192 181.003 6.345-7.287c3.669 3.619 8.13 5.453 13.385 5.453 2.826 0 5.057-.545 6.594-1.636 1.586-1.09 2.379-2.627 2.379-4.61 0-1.686-.595-3.024-1.785-4.016-1.189-.942-3.123-1.735-5.849-2.33l-4.908-1.041c-4.561-1.09-8.13-3.024-10.708-5.849-2.578-2.826-3.867-6.247-3.867-10.163 0-4.115 1.289-7.635 3.867-10.559 2.578-2.925 6.048-4.809 10.361-5.652v-8.576h10.063v8.427c5.454.843 9.519 3.024 12.196 6.495l-6.098 6.99c-1.19-1.141-2.677-1.983-4.462-2.628a18.152 18.152 0 0 0-5.75-.942c-2.677 0-4.759.546-6.247 1.587-1.487 1.09-2.23 2.577-2.23 4.511 0 3.024 2.181 5.056 6.593 5.998l5.056 1.19c10.213 2.281 15.319 7.635 15.319 16.013 0 4.263-1.289 7.882-3.867 10.757-2.578 2.925-6.048 4.809-10.51 5.751v8.675h-10.014v-8.279c-3.321-.446-6.345-1.338-9.072-2.776-2.677-1.338-4.957-3.173-6.791-5.503zM290.39 83.243h-42.138a2.93 2.93 0 0 1-2.925-2.925 2.93 2.93 0 0 1 2.925-2.925h42.138a2.93 2.93 0 0 1 2.924 2.925 2.898 2.898 0 0 1-2.924 2.925z" fill="#fff"/><path d="M290.39 89.093h-42.138a2.93 2.93 0 0 1-2.925-2.925 2.93 2.93 0 0 1 2.925-2.925h42.138a2.93 2.93 0 0 1 2.924 2.925 2.93 2.93 0 0 1-2.924 2.925z" fill="#fff"/><path d="M227.496 215.903c-3.025-26.125-11.056-44.319-25.085-65.289-8.378-12.542-16.657-17.797-23.3-19.78h-21.416c-6.643 1.983-14.922 7.238-23.3 19.78-14.029 20.97-22.011 39.213-25.084 65.289-2.429 20.822 7.684 33.165 29.496 33.76 14.079.397 24.391.248 29.547.1 5.205.148 15.467.247 29.546-.1 21.912-.595 32.025-12.938 29.596-33.76zM181.937 128.157l18.095-29.05s-7.288 3.42-14.773 3.619c-7.288.198-10.956-3.867-16.608-4.016h-.496c-5.651.199-9.27 4.214-16.607 4.016-7.486-.199-14.773-3.62-14.773-3.62l18.095 29.051h27.067z" fill="#138468"/><path d="m153.779 199.693 4.611-5.305c2.677 2.628 5.949 3.966 9.766 3.966 2.082 0 3.668-.396 4.808-1.19 1.141-.793 1.736-1.933 1.736-3.371 0-1.239-.447-2.231-1.289-2.925-.843-.694-2.281-1.289-4.264-1.685l-3.569-.744c-3.322-.793-5.899-2.181-7.783-4.263-1.884-2.082-2.826-4.561-2.826-7.436 0-3.024.942-5.553 2.826-7.684 1.884-2.132 4.412-3.52 7.585-4.115v-6.246h7.287v6.147c3.966.644 6.94 2.181 8.874 4.759l-4.462 5.106c-.843-.843-1.933-1.437-3.222-1.884a12.655 12.655 0 0 0-4.164-.694c-1.934 0-3.471.397-4.561 1.19-1.091.793-1.636 1.884-1.636 3.272 0 2.231 1.586 3.669 4.809 4.363l3.668.892c7.436 1.685 11.154 5.552 11.154 11.699 0 3.124-.942 5.751-2.826 7.883-1.883 2.131-4.412 3.519-7.634 4.164v6.296h-7.287v-5.999c-2.429-.297-4.611-.991-6.594-2.032-2.032-1.14-3.718-2.479-5.007-4.164zM183.772 128.405h-30.736a2.116 2.116 0 0 1-2.132-2.132c0-1.189.942-2.131 2.132-2.131h30.736c1.19 0 2.132.942 2.132 2.131 0 1.19-.942 2.132-2.132 2.132z" fill="#fff"/><path d="M183.772 132.668h-30.736a2.116 2.116 0 0 1-2.132-2.131c0-1.19.942-2.132 2.132-2.132h30.736c1.19 0 2.132.942 2.132 2.132 0 1.14-.942 2.131-2.132 2.131z" fill="#fff"/><path fill-rule="evenodd" clip-rule="evenodd" d="M119.81 157.852 108.755 175.6H92.296l-11.055-17.748s4.462 2.132 9.023 2.231c2.45.054 4.226-.668 5.897-1.347 1.372-.558 2.673-1.087 4.216-1.132H100.675c1.525.067 2.814.587 4.17 1.134 1.684.679 3.471 1.4 5.943 1.345 4.56-.149 9.022-2.231 9.022-2.231zm1.439 31.48c8.576 12.79 13.484 23.944 15.318 39.857 1.488 12.691-4.66 20.226-18.094 20.623-8.576.248-14.872.198-18.045.099l-.02.001c-3.18.049-9.467.147-18.025-.1-13.286-.397-19.483-7.932-17.995-20.623 1.883-15.913 6.742-27.067 15.318-39.857 5.106-7.684 10.163-10.907 14.228-12.096h13.087c4.065 1.239 9.122 4.461 14.228 12.096z" fill="#84D9C6"/><path d="m91.553 219.274 2.826-3.222c1.636 1.636 3.619 2.429 5.949 2.429 1.239 0 2.231-.248 2.925-.743.694-.496 1.041-1.19 1.041-2.033 0-.744-.248-1.338-.793-1.785-.546-.446-1.388-.793-2.628-1.041l-2.18-.446c-2.033-.496-3.62-1.338-4.76-2.627-1.14-1.24-1.735-2.776-1.735-4.511 0-1.835.595-3.372 1.735-4.71 1.14-1.289 2.677-2.132 4.61-2.528v-3.817h4.462v3.767c2.429.397 4.214 1.339 5.404 2.875l-2.727 3.124a5.211 5.211 0 0 0-1.983-1.141c-.793-.297-1.636-.396-2.528-.396-1.19 0-2.132.248-2.776.694-.645.496-.992 1.14-.992 1.983 0 1.338.992 2.231 2.925 2.677l2.231.545c4.561 1.041 6.792 3.421 6.792 7.139 0 1.884-.595 3.52-1.736 4.808-1.14 1.289-2.677 2.132-4.66 2.529v3.867h-4.461v-3.669c-1.487-.198-2.826-.595-4.016-1.239a12.934 12.934 0 0 1-2.925-2.529zM109.896 175.749H91.157a1.313 1.313 0 0 1-1.289-1.289c0-.694.595-1.289 1.289-1.289h18.739c.694 0 1.289.595 1.289 1.289a1.28 1.28 0 0 1-1.289 1.289z" fill="#fff"/><path d="M109.896 178.326H91.157a1.313 1.313 0 0 1-1.289-1.289c0-.694.595-1.289 1.289-1.289h18.739c.694 0 1.289.595 1.289 1.289a1.28 1.28 0 0 1-1.289 1.289z" fill="#fff"/></g><defs><clipPath id="a"><path fill="#fff" d="M0 0h375v250H0z"/></clipPath></defs></svg>